HIERARCHY
ROOT Hips
{
	OFFSET 0.000000 0.000000 0.000000
	CHANNELS 6 Xposition Yposition Zposition Xrotation Yrotation Zrotation
	JOINT LeftUpLeg_virtual
	{
		OFFSET 0.000000 0.000000 0.000000
		CHANNELS 3 Xrotation Yrotation Zrotation
		JOINT LeftUpLeg
		{
			OFFSET 13.026900 -6.336304 -1.092800
			CHANNELS 3 Xrotation Yrotation Zrotation
			JOINT LeftLeg
			{
				OFFSET 0.524474 -46.096886 9.782700
				CHANNELS 3 Xrotation Yrotation Zrotation
				JOINT LeftFoot
				{
					OFFSET -0.524474 -53.427422 -12.948200
					CHANNELS 3 Xrotation Yrotation Zrotation
					JOINT LeftToeBase
					{
						OFFSET 0.192200 -14.009700 16.364100
						CHANNELS 3 Xrotation Yrotation Zrotation
						JOINT LeftToe_End
						{
							OFFSET -1.784700 -0.561700 9.474800
							CHANNELS 3 Xrotation Yrotation Zrotation
							End Site
							{
								OFFSET 0 0 0
							}
						}
					}
				}
			}
		}
	}
	JOINT RightUpLeg_virtual
	{
		OFFSET 0.000000 0.000000 0.000000
		CHANNELS 3 Xrotation Yrotation Zrotation
		JOINT RightUpLeg
		{
			OFFSET -12.883000 -6.336304 -1.092800
			CHANNELS 3 Xrotation Yrotation Zrotation
			JOINT RightLeg
			{
				OFFSET -0.524587 -46.096825 9.782800
				CHANNELS 3 Xrotation Yrotation Zrotation
				JOINT RightFoot
				{
					OFFSET 0.524587 -53.427383 -12.948300
					CHANNELS 3 Xrotation Yrotation Zrotation
					JOINT RightToeBase
					{
						OFFSET -0.192200 -14.009700 16.364100
						CHANNELS 3 Xrotation Yrotation Zrotation
						JOINT RightToe_End
						{
							OFFSET 1.784700 -0.561700 9.474800
							CHANNELS 3 Xrotation Yrotation Zrotation
							End Site
							{
								OFFSET 0 0 0
							}
						}
					}
				}
			}
		}
	}
	JOINT Spine_virtual
	{
		OFFSET 0.000000 0.000000 0.000000
		CHANNELS 3 Xrotation Yrotation Zrotation
		JOINT Spine
		{
			OFFSET 0.072000 7.257294 -0.789700
			CHANNELS 3 Xrotation Yrotation Zrotation
			JOINT Spine1
			{
				OFFSET 0.000000 12.508769 -0.658067
				CHANNELS 3 Xrotation Yrotation Zrotation
				JOINT Spine1_split
				{
					OFFSET 0.000000 12.508769 -0.658067
					CHANNELS 3 Xrotation Yrotation Zrotation
					JOINT Spine2
					{
						OFFSET 0.000000 12.508769 -0.658067
						CHANNELS 3 Xrotation Yrotation Zrotation
						JOINT Neck_virtual
						{
							OFFSET 0.000000 0.000000 0.000000
							CHANNELS 3 Xrotation Yrotation Zrotation
							JOINT Neck
							{
								OFFSET 0.000000 14.033295 7.520400
								CHANNELS 3 Xrotation Yrotation Zrotation
								JOINT Head
								{
									OFFSET 0.000000 8.198502 5.703100
									CHANNELS 3 Xrotation Yrotation Zrotation
									JOINT HeadTop_End
									{
										OFFSET 0.000000 17.760803 13.332701
										CHANNELS 3 Xrotation Yrotation Zrotation
										End Site
										{
											OFFSET 0 0 0
										}
									}
								}
							}
						}
						JOINT LeftShoulder_virtual
						{
							OFFSET 0.000000 0.000000 0.000000
							CHANNELS 3 Xrotation Yrotation Zrotation
							JOINT LeftShoulder
							{
								OFFSET 6.292450 5.785301 -0.669000
								CHANNELS 3 Xrotation Yrotation Zrotation
								JOINT LeftShoulder_split
								{
									OFFSET 6.292450 5.785301 -0.669000
									CHANNELS 3 Xrotation Yrotation Zrotation
									JOINT LeftArm
									{
										OFFSET 13.907140 -6.093903 1.965100
										CHANNELS 3 Xrotation Yrotation Zrotation
										JOINT LeftForeArm
										{
											OFFSET 34.140198 0.000000 0.000000
											CHANNELS 3 Xrotation Yrotation Zrotation
											JOINT LeftHand
											{
												OFFSET 40.960209 0.000000 0.000000
												CHANNELS 3 Xrotation Yrotation Zrotation
												End Site
												{
													OFFSET 0 0 0
												}
											}
										}
									}
								}
							}
						}
						JOINT RightShoulder_virtual
						{
							OFFSET 0.000000 0.000000 0.000000
							CHANNELS 3 Xrotation Yrotation Zrotation
							JOINT RightShoulder
							{
								OFFSET -6.292450 5.785301 -0.669000
								CHANNELS 3 Xrotation Yrotation Zrotation
								JOINT RightShoulder_split
								{
									OFFSET -6.292450 5.785301 -0.669000
									CHANNELS 3 Xrotation Yrotation Zrotation
									JOINT RightArm
									{
										OFFSET -13.907140 -6.093903 1.965100
										CHANNELS 3 Xrotation Yrotation Zrotation
										JOINT RightForeArm
										{
											OFFSET -34.140198 0.000000 0.000000
											CHANNELS 3 Xrotation Yrotation Zrotation
											JOINT RightHand
											{
												OFFSET -40.960209 0.000000 0.000000
												CHANNELS 3 Xrotation Yrotation Zrotation
												End Site
												{
													OFFSET 0 0 0
												}
											}
										}
									}
								}
							}
						}
					}
				}
			}
		}
	}
}
MOTION
Frames: 4
Frame Time: 0.03333333
-2.432688 50.494881 97.527367 0.000000 0.000000 0.000000 20.001693 -26.737580 -9.066861 -3.644213 3.453004 4.177425 98.465359 -4.997677 -3.364978 26.365377 -3.718840 -20.417496 -0.675750 -0.782993 -2.813894 0.000000 0.000000 0.000000 21.738255 -17.983939 -10.861863 2.485209 11.672168 -7.106516 64.841192 9.339547 -10.065504 45.778721 5.333529 18.175687 10.954011 -3.002775 -0.516279 0.000000 0.000000 0.000000 19.546388 -24.076002 -9.941131 6.535935 -0.022327 5.104213 -2.842393 2.533508 1.731687 0.129489 -2.599457 1.351150 0.000000 0.000000 0.000000 -4.465860 2.565975 2.131924 -59.445438 -2.431190 19.130948 17.286147 16.606830 -16.258026 0.000000 0.000000 0.000000 -4.703743 2.723298 1.773899 -19.287131 0.537779 -15.987275 -3.716324 3.765799 -3.352478 11.605441 6.785511 -49.467929 71.900855 -31.784982 38.289095 0.000000 0.000000 0.000000 -4.733258 2.632139 1.834067 -18.433262 0.749637 22.639821 -8.688921 0.487671 -1.192430 4.749309 -9.826395 50.712696 7.184098 32.484796 9.320456 0.000000 0.000000 0.000000 
-2.040008 49.997505 100.993080 0.000000 0.000000 0.000000 21.909365 -27.836397 -9.138264 0.099380 2.849216 3.327104 94.098724 -3.087595 -5.573074 23.640562 -1.800209 -20.445420 -0.237548 -0.834372 -3.129840 0.000000 0.000000 0.000000 23.248275 -18.036754 -11.367592 2.179224 9.986021 -6.962379 65.652516 9.610463 -10.039624 43.864110 6.308365 18.057564 11.570352 -3.201385 -0.913411 0.000000 0.000000 0.000000 21.086956 -24.070008 -10.213383 6.391797 -0.326310 5.498517 -3.250454 2.288495 2.098585 0.434319 -2.246861 1.184425 0.000000 0.000000 0.000000 -4.704551 2.432060 2.422371 -61.185886 -3.100371 20.107841 18.354361 17.235450 -16.817305 0.000000 0.000000 0.000000 -5.020393 2.515865 2.120549 -19.310215 0.744781 -15.805307 -3.117054 3.497556 -3.622858 12.596562 10.593779 -46.637430 75.015080 -33.817312 39.140146 0.000000 0.000000 0.000000 -5.074844 2.491474 2.149567 -18.357933 -0.530875 22.331780 -7.677772 0.214436 -0.427777 4.704155 -6.581993 53.151791 -1.801365 37.054859 13.706135 0.000000 0.000000 0.000000 
-1.666051 49.152851 104.404427 0.000000 0.000000 0.000000 23.894635 -28.209706 -9.040204 3.484354 1.558211 2.267411 90.321889 -2.085280 -6.538292 21.936339 -1.008945 -22.058222 -1.493405 -0.897916 -2.783345 0.000000 0.000000 0.000000 24.925956 -17.891657 -11.731652 1.774913 7.845195 -7.036040 66.674497 9.827587 -9.670207 42.957990 7.625805 18.015544 11.273943 -3.464044 -1.393104 0.000000 0.000000 0.000000 23.015497 -23.635919 -10.155530 6.155208 -0.595352 5.638757 -3.477581 2.047024 2.528268 0.680187 -1.911421 0.951782 0.000000 0.000000 0.000000 -4.694220 2.281415 2.791395 -63.172877 -3.563320 20.368133 19.156237 17.252694 -17.322680 0.000000 0.000000 0.000000 -5.183843 2.344068 2.531326 -19.377332 0.486064 -15.144524 -1.966614 3.010306 -3.919269 14.286211 11.847745 -43.505856 74.529481 -37.726079 38.161602 0.000000 0.000000 0.000000 -5.085270 2.368755 2.541301 -18.407158 -1.580243 21.965607 -6.479040 -0.510306 0.358603 5.185291 -3.344662 55.974066 -7.674109 43.518014 15.762190 0.000000 0.000000 0.000000 
-1.468545 48.041046 107.696442 0.000000 0.000000 0.000000 25.979722 -27.630721 -8.789157 5.823479 -0.357957 1.062754 87.064005 -1.977068 -6.196937 21.793868 -1.435083 -24.599712 -2.584930 -1.002045 -2.033702 0.000000 0.000000 0.000000 26.932349 -17.513339 -11.906018 1.577771 5.804243 -7.184311 67.105161 9.987465 -9.069651 42.923279 8.980743 17.974179 10.177104 -3.737020 -1.834349 0.000000 0.000000 0.000000 25.438474 -22.803005 -9.905666 5.822811 -0.739430 5.504116 -3.537902 1.871714 2.971753 0.752930 -1.508800 0.907274 0.000000 0.000000 0.000000 -4.535568 2.164347 3.189998 -65.303773 -3.741430 19.977079 19.675904 16.588323 -17.703842 0.000000 0.000000 0.000000 -5.211459 2.256598 2.938140 -19.480398 -0.152039 -14.100424 -1.035064 2.605339 -4.224734 16.113588 11.139873 -40.402717 70.044177 -42.255939 34.676860 0.000000 0.000000 0.000000 -4.810752 2.313448 2.925502 -18.645829 -2.211037 21.681261 -5.456803 -1.305454 0.914547 6.123854 -0.762373 57.799062 -9.363464 50.598759 14.648497 0.000000 0.000000 0.000000 
